ModelForces
version=1
nRows=4
nColumns=206
inDegrees=no

This file contains the forces exerted on a model during a simulation.

A force is a generalized force, meaning that it can be either a force (N) or a torque (Nm).

Units are S.I. units (second, meters, Newtons, ...)
Angles are in degrees.

endheader
time	glut_med1_r	glut_med2_r	glut_med3_r	glut_min1_r	glut_min2_r	glut_min3_r	semimem_r	semiten_r	bifemlh_r	bifemsh_r	sar_r	add_long_r	add_brev_r	add_mag1_r	add_mag2_r	add_mag3_r	tfl_r	pect_r	grac_r	glut_max1_r	glut_max2_r	glut_max3_r	iliacus_r	psoas_r	quad_fem_r	gem_r	peri_r	rect_fem_r	vas_med_r	vas_int_r	vas_lat_r	med_gas_r	lat_gas_r	soleus_r	tib_post_r	flex_dig_r	flex_hal_r	tib_ant_r	per_brev_r	per_long_r	per_tert_r	ext_dig_r	ext_hal_r	glut_med1_l	glut_med2_l	glut_med3_l	glut_min1_l	glut_min2_l	glut_min3_l	semimem_l	semiten_l	bifemlh_l	bifemsh_l	sar_l	add_long_l	add_brev_l	add_mag1_l	add_mag2_l	add_mag3_l	tfl_l	pect_l	grac_l	glut_max1_l	glut_max2_l	glut_max3_l	iliacus_l	psoas_l	quad_fem_l	gem_l	peri_l	rect_fem_l	vas_med_l	vas_int_l	vas_lat_l	med_gas_l	lat_gas_l	soleus_l	tib_post_l	flex_dig_l	flex_hal_l	tib_ant_l	per_brev_l	per_long_l	per_tert_l	ext_dig_l	ext_hal_l	ercspn_r	ercspn_l	intobl_r	intobl_l	extobl_r	extobl_l	femur_lat_meniscii_l.femur_lat_l.force.X	femur_lat_meniscii_l.femur_lat_l.force.Y	femur_lat_meniscii_l.femur_lat_l.force.Z	femur_lat_meniscii_l.femur_lat_l.torque.X	femur_lat_meniscii_l.femur_lat_l.torque.Y	femur_lat_meniscii_l.femur_lat_l.torque.Z	femur_lat_meniscii_l.meniscus_lat_l.force.X	femur_lat_meniscii_l.meniscus_lat_l.force.Y	femur_lat_meniscii_l.meniscus_lat_l.force.Z	femur_lat_meniscii_l.meniscus_lat_l.torque.X	femur_lat_meniscii_l.meniscus_lat_l.torque.Y	femur_lat_meniscii_l.meniscus_lat_l.torque.Z	femur_med_meniscii_l.femur_med_l.force.X	femur_med_meniscii_l.femur_med_l.force.Y	femur_med_meniscii_l.femur_med_l.force.Z	femur_med_meniscii_l.femur_med_l.torque.X	femur_med_meniscii_l.femur_med_l.torque.Y	femur_med_meniscii_l.femur_med_l.torque.Z	femur_med_meniscii_l.meniscus_med_l.force.X	femur_med_meniscii_l.meniscus_med_l.force.Y	femur_med_meniscii_l.meniscus_med_l.force.Z	femur_med_meniscii_l.meniscus_med_l.torque.X	femur_med_meniscii_l.meniscus_med_l.torque.Y	femur_med_meniscii_l.meniscus_med_l.torque.Z	femur_lat_meniscii_r.femur_lat_r.force.X	femur_lat_meniscii_r.femur_lat_r.force.Y	femur_lat_meniscii_r.femur_lat_r.force.Z	femur_lat_meniscii_r.femur_lat_r.torque.X	femur_lat_meniscii_r.femur_lat_r.torque.Y	femur_lat_meniscii_r.femur_lat_r.torque.Z	femur_lat_meniscii_r.meniscus_lat_r.force.X	femur_lat_meniscii_r.meniscus_lat_r.force.Y	femur_lat_meniscii_r.meniscus_lat_r.force.Z	femur_lat_meniscii_r.meniscus_lat_r.torque.X	femur_lat_meniscii_r.meniscus_lat_r.torque.Y	femur_lat_meniscii_r.meniscus_lat_r.torque.Z	femur_med_meniscii_r.femur_med_r.force.X	femur_med_meniscii_r.femur_med_r.force.Y	femur_med_meniscii_r.femur_med_r.force.Z	femur_med_meniscii_r.femur_med_r.torque.X	femur_med_meniscii_r.femur_med_r.torque.Y	femur_med_meniscii_r.femur_med_r.torque.Z	femur_med_meniscii_r.meniscus_med_r.force.X	femur_med_meniscii_r.meniscus_med_r.force.Y	femur_med_meniscii_r.meniscus_med_r.force.Z	femur_med_meniscii_r.meniscus_med_r.torque.X	femur_med_meniscii_r.meniscus_med_r.torque.Y	femur_med_meniscii_r.meniscus_med_r.torque.Z	femur_med_tibia_l.tibia_upper_l.force.X	femur_med_tibia_l.tibia_upper_l.force.Y	femur_med_tibia_l.tibia_upper_l.force.Z	femur_med_tibia_l.tibia_upper_l.torque.X	femur_med_tibia_l.tibia_upper_l.torque.Y	femur_med_tibia_l.tibia_upper_l.torque.Z	femur_med_tibia_l.femur_med_l.force.X	femur_med_tibia_l.femur_med_l.force.Y	femur_med_tibia_l.femur_med_l.force.Z	femur_med_tibia_l.femur_med_l.torque.X	femur_med_tibia_l.femur_med_l.torque.Y	femur_med_tibia_l.femur_med_l.torque.Z	femur_lat_tibia_l.tibia_upper_l.force.X	femur_lat_tibia_l.tibia_upper_l.force.Y	femur_lat_tibia_l.tibia_upper_l.force.Z	femur_lat_tibia_l.tibia_upper_l.torque.X	femur_lat_tibia_l.tibia_upper_l.torque.Y	femur_lat_tibia_l.tibia_upper_l.torque.Z	femur_lat_tibia_l.femur_lat_l.force.X	femur_lat_tibia_l.femur_lat_l.force.Y	femur_lat_tibia_l.femur_lat_l.force.Z	femur_lat_tibia_l.femur_lat_l.torque.X	femur_lat_tibia_l.femur_lat_l.torque.Y	femur_lat_tibia_l.femur_lat_l.torque.Z	femur_med_tibia_r.tibia_upper_r.force.X	femur_med_tibia_r.tibia_upper_r.force.Y	femur_med_tibia_r.tibia_upper_r.force.Z	femur_med_tibia_r.tibia_upper_r.torque.X	femur_med_tibia_r.tibia_upper_r.torque.Y	femur_med_tibia_r.tibia_upper_r.torque.Z	femur_med_tibia_r.femur_med_r.force.X	femur_med_tibia_r.femur_med_r.force.Y	femur_med_tibia_r.femur_med_r.force.Z	femur_med_tibia_r.femur_med_r.torque.X	femur_med_tibia_r.femur_med_r.torque.Y	femur_med_tibia_r.femur_med_r.torque.Z	femur_lat_tibia_r.tibia_upper_r.force.X	femur_lat_tibia_r.tibia_upper_r.force.Y	femur_lat_tibia_r.tibia_upper_r.force.Z	femur_lat_tibia_r.tibia_upper_r.torque.X	femur_lat_tibia_r.tibia_upper_r.torque.Y	femur_lat_tibia_r.tibia_upper_r.torque.Z	femur_lat_tibia_r.femur_lat_r.force.X	femur_lat_tibia_r.femur_lat_r.force.Y	femur_lat_tibia_r.femur_lat_r.force.Z	femur_lat_tibia_r.femur_lat_r.torque.X	femur_lat_tibia_r.femur_lat_r.torque.Y	femur_lat_tibia_r.femur_lat_r.torque.Z	aACL_R	pACL_R	aPCL_R	pPCL_R	aMCL_R	mMCL_R	pMCL_R	aLCL_R	mLCL_R	pLCL_R	aPCL_L	pPCL_L	aMCL_L	aLCL_L	ground_prescribedForce_0_fx	ground_prescribedForce_0_fy	ground_prescribedForce_0_fz
      0.10776764	     15.92934271	     11.36917481	     12.27093578	      5.18626854	      5.94363423	      6.72748281	     21.41928897	      9.10210536	     17.11821053	     14.54500727	      3.08105117	     11.35334866	      8.02760987	      5.83825900	      4.98643574	      8.56912911	      6.89175382	      4.38709868	      3.16084430	      7.35374015	     11.19317066	      8.44720612	     33.16178184	     24.92861631	      7.17652007	      4.58554387	      9.82380297	     24.76118690	     15.00656768	     14.21073627	     16.68854533	      5.62987233	      2.59637672	     10.73108425	     16.60112591	      8.72512722	      9.41033740	     26.66408961	      9.54461121	     20.99940258	      7.99645417	      9.18737945	      2.02586514	     15.92934271	     11.36917481	     12.27093578	      5.18626854	      5.94363423	      6.72748281	     20.19915084	      8.57062563	     17.44805524	     14.28973752	      2.95512365	     11.35334866	      8.02760987	      5.83825900	      4.98643574	      8.56912911	      6.94027130	      4.38709868	      3.06616591	      7.35374015	     11.19317066	      8.44720612	     33.16178184	     24.92861631	      7.17652007	      4.58554387	      9.82380297	     24.05706604	     13.49457901	     15.65844980	     16.82421987	     35.00882649	     16.28526759	     74.81858696	     61.16068913	      7.51305200	      7.44163655	     18.69827881	     10.12038140	     24.91040386	      3.85020030	     12.68678681	      3.97639237	     48.84821982	     48.84821982	     18.55567487	     18.55567487	     35.48289942	     35.48289942	      2.76307435	     50.99597937	     -9.56042239	      5.21997485	     -0.02578839	      1.48581788	     -2.76307435	    -50.99597937	      9.56042239	     -1.74637766	      0.02558040	     -0.48301696	     -3.31599387	     20.97615968	     -3.40468921	      0.94473225	     -0.02138609	     -1.00501789	      3.31599387	    -20.97615968	      3.40468921	      0.28075727	      0.00368718	     -0.29758878	     20.92282438	    107.41924434	     -1.90896363	     -1.93583170	      0.56231338	      9.22767857	    -20.92282438	   -107.41924434	      1.90896363	      3.26912226	     -0.67742204	     -1.09168347	     64.10926096	     98.15489003	      5.44667719	     -0.16691365	     -1.41649702	     27.14274492	    -64.10926096	    -98.15489003	     -5.44667719	     -1.37975816	      1.05421743	     -2.40922468	      0.00000000	      0.00000000	      0.00000000	      0.00000000	      0.00000000	      0.00000000	      0.00000000	      0.00000000	      0.00000000	      0.00000000	      0.00000000	      0.00000000	      0.00000000	      0.00000000	      0.00000000	      0.00000000	      0.00000000	      0.00000000	      0.00000000	      0.00000000	      0.00000000	      0.00000000	      0.00000000	      0.00000000	     -0.06800887	     -0.27521115	      0.09136477	     -0.00605574	     -0.00026129	     -0.00529841	      0.06800887	      0.27521115	     -0.09136477	      0.04272129	     -0.00004066	      0.03168147	     -0.50542063	    -13.26237124	     -3.51922591	      0.50028015	      0.00294380	     -0.08285264	      0.50542063	     13.26237124	      3.51922591	     -1.77944844	     -0.00874726	      0.28843356	     11.66273934	     25.78162512	      0.00000000	      0.00000000	      0.00000000	      6.26703336	     28.25719849	      1.74087813	      0.00000000	      1.67606026	      0.00000000	      0.00000000	      0.00000001	      0.00000000	    110.00000000	      0.00000000	      0.00000000
      0.11099025	     15.57333625	     11.12766748	     12.00754500	      5.08013707	      5.82663464	      6.57735863	     20.93119269	      8.89087274	     16.79313814	     14.25071512	      3.01469818	     11.10974845	      7.86479518	      5.71448443	      4.87860124	      8.37491505	      6.77580423	      4.29667157	      3.09120754	      7.19645166	     10.95343526	      8.26418293	     32.71047079	     24.41502527	      7.02671008	      4.51068921	      9.59461684	     24.21346535	     14.67863764	     13.90651277	     16.37516001	      5.56402568	      2.57292422	     10.65684462	     16.00828760	      8.44415304	      9.18759488	     26.12026146	      9.28580060	     20.41225528	      7.69266889	      9.08243628	      1.98330066	     15.57333625	     11.12766748	     12.00754500	      5.08013707	      5.82663464	      6.57735863	     19.73109780	      8.37990536	     17.04360432	     13.99099778	      2.89491987	     11.10974845	      7.86479518	      5.71448443	      4.87860124	      8.37491505	      6.81955001	      4.29667157	      3.00266983	      7.19645166	     10.95343526	      8.26418293	     32.71047079	     24.41502527	      7.02671008	      4.51068921	      9.59461684	     23.50016744	     13.19907934	     15.31177939	     16.45072050	     34.19874216	     15.90711942	     73.06778629	     60.37103002	      7.31933647	      7.25319565	     18.26835418	      9.88293028	     24.40016191	      3.77113140	     12.39198309	      3.88382115	     47.84652853	     47.84652853	     18.14955630	     18.14955630	     35.10892542	     35.10892542	      2.76307435	     50.99597937	     -9.56042239	      5.21997485	     -0.02578839	      1.48581788	     -2.76307435	    -50.99597937	      9.56042239	     -1.74637766	      0.02558040	     -0.48301696	     -3.31599387	     20.97615968	     -3.40468921	      0.94473225	     -0.02138609	     -1.00501789	      3.31599387	    -20.97615968	      3.40468921	      0.28075727	      0.00368718	     -0.29758878	     21.18293741	    107.35261341	     -1.26946368	     -2.20193742	      0.56506268	      9.34219584	    -21.18293741	   -107.35261341	      1.26946368	      3.28975542	     -0.68227843	     -1.10268157	     62.32152232	     96.26729319	      5.11943310	     -0.07601166	     -1.37128503	     26.38716850	    -62.32152232	    -96.26729319	     -5.11943310	     -1.35471198	      1.01864393	     -2.33906045	      0.00000000	      0.00000000	      0.00000000	      0.00000000	      0.00000000	      0.00000000	      0.00000000	      0.00000000	      0.00000000	      0.00000000	      0.00000000	      0.00000000	      0.00000000	      0.00000000	      0.00000000	      0.00000000	      0.00000000	      0.00000000	      0.00000000	      0.00000000	      0.00000000	      0.00000000	      0.00000000	      0.00000000	     -0.04536489	     -0.17876211	      0.05958320	     -0.00393400	     -0.00016154	     -0.00349063	      0.04536489	      0.17876211	     -0.05958320	      0.02784315	     -0.00003949	      0.02109122	     -0.47432189	    -11.81632920	     -3.17785922	      0.44742221	      0.00206159	     -0.07441238	      0.47432189	     11.81632920	      3.17785922	     -1.60334366	     -0.00750536	      0.26718499	     11.79111622	     26.07282467	      0.00000000	      0.00000000	      0.00000000	      6.02192459	     28.14508590	      1.27201285	      0.00000000	      1.23764208	      0.00000000	      0.00000000	      0.00000001	      0.00000000	    110.00000000	      0.00000000	      0.00000000
      0.11459033	     15.19388631	     10.87027952	     11.72686631	      4.96697753	      5.70194687	      6.41735369	     20.37037405	      8.64748154	     16.41105734	     13.83483494	      2.93312229	     10.85015733	      7.69119202	      5.58258608	      4.76371092	      8.16785152	      6.63931677	      4.20026945	      3.00255914	      7.02887538	     10.69801076	      8.06917685	     32.22997785	     23.86800018	      6.86702264	      4.43100594	      9.34951335	     23.57941690	     14.25656917	     13.48256864	     15.92864383	      5.46347438	      2.53606315	     10.56721718	     15.37713923	      8.12694350	      8.94044146	     25.54237944	      9.00356713	     19.77806180	      7.79563014	      9.02683719	      1.94597546	     15.19388631	     10.87027952	     11.72686631	      4.96697753	      5.70194687	      6.41735369	     19.23083196	      8.17664793	     16.61174329	     13.67257830	      2.83072623	     10.85015733	      7.69119202	      5.58258608	      4.76371092	      8.16785152	      6.69081965	      4.20026945	      2.93498003	      7.02887538	     10.69801076	      8.06917685	     32.22997785	     23.86800018	      6.86702264	      4.43100594	      9.34951335	     22.90570611	     12.88435587	     14.94251133	     16.05297701	     33.33117557	     15.50221482	     71.19548242	     59.52874648	      7.11264343	      7.05243482	     17.80968612	      9.62932216	     23.85602933	      3.68691867	     12.07657393	      3.78484871	     46.77852930	     46.77852930	     17.71678153	     17.71678153	     34.71092132	     34.71092132	      2.76307435	     50.99597937	     -9.56042239	      5.21997485	     -0.02578839	      1.48581788	     -2.76307435	    -50.99597937	      9.56042239	     -1.74637766	      0.02558040	     -0.48301696	     -3.31599387	     20.97615968	     -3.40468921	      0.94473225	     -0.02138609	     -1.00501789	      3.31599387	    -20.97615968	      3.40468921	      0.28075727	      0.00368718	     -0.29758878	     21.47448625	    106.42176848	     -0.78126268	     -2.38332069	      0.56962812	      9.45841340	    -21.47448625	   -106.42176848	      0.78126268	      3.27865373	     -0.68895849	     -1.10338928	     62.44408102	     95.08233388	      5.32663414	     -0.19576936	     -1.37454863	     26.44341504	    -62.44408102	    -95.08233388	     -5.32663414	     -1.32090192	      1.02058566	     -2.34512578	      0.00000000	      0.00000000	      0.00000000	      0.00000000	      0.00000000	      0.00000000	      0.00000000	      0.00000000	      0.00000000	      0.00000000	      0.00000000	      0.00000000	      0.00000000	      0.00000000	      0.00000000	      0.00000000	      0.00000000	      0.00000000	      0.00000000	      0.00000000	      0.00000000	      0.00000000	      0.00000000	      0.00000000	     -0.04015764	     -0.15208364	      0.05060096	     -0.00335104	     -0.00011435	     -0.00300973	      0.04015764	      0.15208364	     -0.05060096	      0.02365835	     -0.00006372	      0.01859071	     -0.46933974	    -10.95859230	     -2.99067515	      0.41667454	      0.00121306	     -0.06980202	      0.46933974	     10.95859230	      2.99067515	     -1.50539090	     -0.00658049	      0.26032667	     12.22157129	     26.66319953	      0.00000000	      0.00000000	      0.00000000	      6.33817452	     28.59308564	      1.51796912	      0.00000000	      1.50621003	      0.00000000	      0.00000000	      0.00000001	      0.00000000	    110.00000000	      0.00000000	      0.00000000
      0.11819042	     14.83277749	     10.62534708	     11.45980300	      4.85923862	      5.58329696	      6.26508695	     19.87277700	      8.43793837	     16.06521772	     13.55374782	      2.87901267	     10.60315691	      7.52585754	      5.45708544	      4.65441623	      7.97074154	      6.51448308	      4.10850152	      2.93667411	      6.86946316	     10.45502197	      7.88366138	     31.77322418	     23.34780264	      6.71503509	      4.35527412	      9.11545824	     23.01168277	     13.95348627	     13.15825061	     15.57637374	      5.40945242	      2.52089653	     10.53384977	     14.76730735	      7.80045718	      8.69169802	     24.95745184	      8.74951258	     19.18928810	      7.89919515	      9.04954052	      1.91955075	     14.83277749	     10.62534708	     11.45980300	      4.85923862	      5.58329696	      6.26508695	     18.75341481	      7.98323519	     16.20001206	     13.36952958	      2.76960093	     10.60315691	      7.52585754	      5.45708544	      4.65441623	      7.97074154	      6.56826907	      4.10850152	      2.87054646	      6.86946316	     10.45502197	      7.88366138	     31.77322418	     23.34780264	      6.71503509	      4.35527412	      9.11545824	     22.33912407	     12.58507339	     14.59132090	     15.67480764	     32.50152760	     15.11508117	     69.40767443	     58.72672758	      6.91559619	      6.86134482	     17.37277447	      9.38747013	     23.33786274	      3.60683786	     11.77537290	      3.69040376	     45.76172885	     45.76172885	     17.30500365	     17.30500365	     34.33272666	     34.33272666	      2.76307435	     50.99597937	     -9.56042239	      5.21997485	     -0.02578839	      1.48581788	     -2.76307435	    -50.99597937	      9.56042239	     -1.74637766	      0.02558040	     -0.48301696	     -3.31599387	     20.97615968	     -3.40468921	      0.94473225	     -0.02138609	     -1.00501789	      3.31599387	    -20.97615968	      3.40468921	      0.28075727	      0.00368718	     -0.29758878	     21.58401759	    105.37216517	     -0.65710289	     -2.40721584	      0.57162347	      9.49624825	    -21.58401759	   -105.37216517	      0.65710289	      3.24919621	     -0.69170494	     -1.09562403	     63.14986233	     95.21769984	      5.52385471	     -0.28206109	     -1.38975235	     26.74356576	    -63.14986233	    -95.21769984	     -5.52385471	     -1.30951079	      1.03128942	     -2.36936188	      0.00000000	      0.00000000	      0.00000000	      0.00000000	      0.00000000	      0.00000000	      0.00000000	      0.00000000	      0.00000000	      0.00000000	      0.00000000	      0.00000000	      0.00000000	      0.00000000	      0.00000000	      0.00000000	      0.00000000	      0.00000000	      0.00000000	      0.00000000	      0.00000000	      0.00000000	      0.00000000	      0.00000000	     -0.03070814	     -0.11241154	      0.03807056	     -0.00251091	     -0.00007439	     -0.00224772	      0.03070814	      0.11241154	     -0.03807056	      0.01777885	     -0.00006088	      0.01416358	     -0.43821805	     -9.83308615	     -2.68606391	      0.37387991	      0.00054831	     -0.06295279	      0.43821805	      9.83308615	      2.68606391	     -1.35175896	     -0.00557183	      0.24087890	     12.49394274	     27.15736067	      0.00000000	      0.00000000	      0.00000000	      6.13461672	     28.52023949	      1.27455439	      0.00000000	      1.27854504	      0.00000000	      0.00000000	      0.00000001	      0.00000000	    110.00000000	      0.00000000	      0.00000000
